<svg height="512" viewBox="0 0 512 512" width="512" xmlns="http://www.w3.org/2000/svg"><g id="Flat"><path d="m160 456h192v32h-192z" fill="#c7161f"/><path d="m362.59644 452.46785-10.59644 3.53215h-192l-10.59643-3.53214a160 160 0 0 1 -109.40357-151.78933v-84.67853c0-106.03867 85.96133-192 192-192h48c106.03867 0 192 85.96133 192 192v84.67852a160 160 0 0 1 -109.40356 151.78933z" fill="#eb352f"/><rect fill="#e6e6e6" height="240" rx="96" width="352" x="80" y="88"/><path d="m165.25488 304a53.315 53.315 0 0 1 -53.25488-53.25488v-2.74512a32 32 0 0 1 64 0 8 8 0 0 1 -16 0 16 16 0 0 0 -32 0v2.74512a37.2973 37.2973 0 0 0 37.25488 37.25488 26.97017 26.97017 0 0 0 22.48633-12.03418l5.60254-8.40381a8.00009 8.00009 0 0 1 13.3125 8.876l-5.60254 8.40332a42.938 42.938 0 0 1 -35.79883 19.15867z" fill="#808080"/><path d="m346.74512 304a42.93731 42.93731 0 0 1 -35.79883-19.15918l-5.60254-8.40283a8.00009 8.00009 0 0 1 13.3125-8.876l5.60254 8.40332a26.96943 26.96943 0 0 0 22.48633 12.03469 37.2973 37.2973 0 0 0 37.25488-37.25488v-2.74512a16 16 0 0 0 -32 0 8 8 0 0 1 -16 0 32 32 0 0 1 64 0v2.74512a53.315 53.315 0 0 1 -53.25488 53.25488z" fill="#808080"/><path d="m287.99414 264.002a7.97129 7.97129 0 0 1 -3.57226-.84668 63.85719 63.85719 0 0 0 -56.84376 0 8.00005 8.00005 0 0 1 -7.15624-14.31054 79.93719 79.93719 0 0 1 71.15624 0 8.00143 8.00143 0 0 1 -3.584 15.15722z" fill="#eb352f"/><path d="m215.99414 304.002a8.00332 8.00332 0 0 1 -7.14941-11.57959l8-16a7.99984 7.99984 0 1 1 14.31054 7.15528l-8 16a7.99933 7.99933 0 0 1 -7.16113 4.42431z" fill="#808080"/><path d="m296.00586 304.002a7.99843 7.99843 0 0 1 -7.16113-4.42431l-8-16a7.99984 7.99984 0 1 1 14.31054-7.15528l8 16a8.00332 8.00332 0 0 1 -7.14941 11.57959z" fill="#808080"/><path d="m256 304a8.00008 8.00008 0 0 1 -8-8v-16a8 8 0 0 1 16 0v16a8.00008 8.00008 0 0 1 -8 8z" fill="#808080"/><circle cx="184" cy="168" fill="#f7f7f7" r="32"/><path d="m184 208a40 40 0 1 1 40-40 40.04552 40.04552 0 0 1 -40 40zm0-64a24 24 0 1 0 24 24 24.0275 24.0275 0 0 0 -24-24z" fill="#f2e368"/><path d="m128.00586 200.00049a7.98943 7.98943 0 0 1 -6.40625-3.20069 50.81121 50.81121 0 0 1 7.56445-68.90527l1.81543-1.55615a50.48186 50.48186 0 0 1 59.8584-4.499l25.16211 15.72654v-17.56592a8 8 0 0 1 16 0v32a8.00044 8.00044 0 0 1 -12.24023 6.78418l-37.40235-23.37647a34.5452 34.5452 0 0 0 -40.96582 3.07862l-1.81543 1.55566a34.77472 34.77472 0 0 0 -5.17578 47.15821 8.001 8.001 0 0 1 -6.39453 12.80029z" fill="#808080"/><circle cx="184" cy="168" fill="#808080" r="8"/><circle cx="328" cy="168" fill="#f7f7f7" r="32"/><path d="m328 208a40 40 0 1 1 40-40 40.04552 40.04552 0 0 1 -40 40zm0-64a24 24 0 1 0 24 24 24.0275 24.0275 0 0 0 -24-24z" fill="#f2e368"/><circle cx="328" cy="168" fill="#808080" r="8"/><path d="m383.99414 200.00049a8.001 8.001 0 0 1 -6.39453-12.80029 34.774 34.774 0 0 0 -5.17578-47.15772l-1.81543-1.55664a34.54751 34.54751 0 0 0 -40.96582-3.07813l-37.40235 23.37647a8.00044 8.00044 0 0 1 -12.24023-6.78418v-32a8 8 0 0 1 16 0v17.56592l25.16211-15.72656a50.48256 50.48256 0 0 1 59.8584 4.49853l1.81543 1.55664a50.81121 50.81121 0 0 1 7.56445 68.90527 7.98943 7.98943 0 0 1 -6.40625 3.20069z" fill="#808080"/><path d="m199.99414 240.002a8.00437 8.00437 0 0 1 -7.14941-11.58056l1.57422-3.14746a31.24983 31.24983 0 0 1 50.04785-8.12061l1.18847 1.18848a7.99983 7.99983 0 1 1 -11.31054 11.3164l-1.19043-1.18994a15.249 15.249 0 0 0 -24.42383 3.96143l-1.5752 3.14892a8.00234 8.00234 0 0 1 -7.16113 4.42334z" fill="#eb352f"/><path d="m312.00586 240.002a8.00144 8.00144 0 0 1 -7.16113-4.42334l-1.57422-3.14746a15.24874 15.24874 0 0 0 -24.42285-3.96435l-1.19239 1.1914a7.99983 7.99983 0 1 1 -11.31054-11.3164l1.19043-1.18994a31.24959 31.24959 0 0 1 50.04687 8.12353l1.57324 3.146a8.00437 8.00437 0 0 1 -7.14941 11.58056z" fill="#eb352f"/><g fill="#f2e368"><path d="m192 360a16 16 0 0 1 16 16v48l-3.37836-1.68918a51.777 51.777 0 0 1 -28.62164-46.31082 16 16 0 0 1 16-16z"/><path d="m128 352a16 16 0 0 1 16 16v48l-3.37836-1.68918a51.777 51.777 0 0 1 -28.62164-46.31082 16 16 0 0 1 16-16z"/><path d="m320 360a16 16 0 0 0 -16 16v48l3.37836-1.68918a51.777 51.777 0 0 0 28.62164-46.31082 16 16 0 0 0 -16-16z"/><path d="m384 352a16 16 0 0 0 -16 16v48l3.37836-1.68918a51.777 51.777 0 0 0 28.62164-46.31082 16 16 0 0 0 -16-16z"/><path d="m256 424a54.62737 54.62737 0 0 1 -16-38.62737v-9.37263a16 16 0 0 1 16-16 16 16 0 0 1 16 16v9.37263a54.62737 54.62737 0 0 1 -16 38.62737z"/></g></g></svg>