<svg id="Capa_1" enable-background="new 0 0 510 510" height="512" viewBox="0 0 510 510" width="512" xmlns="http://www.w3.org/2000/svg" xmlns:xlink="http://www.w3.org/1999/xlink"><linearGradient id="lg1"><stop offset="0" stop-color="#fe646f"/><stop offset=".5213" stop-color="#e41f2d"/><stop offset="1" stop-color="#c41926"/></linearGradient><linearGradient id="SVGID_1_" gradientUnits="userSpaceOnUse" x1="73.294" x2="675.076" xlink:href="#lg1" y1="255" y2="255"/><linearGradient id="SVGID_2_" gradientUnits="userSpaceOnUse" x1="-34.395" x2="424.621" xlink:href="#lg1" y1="255" y2="255"/><linearGradient id="lg2"><stop offset="0" stop-color="#fef056"/><stop offset=".5213" stop-color="#f4d902"/><stop offset="1" stop-color="#fe9738"/></linearGradient><linearGradient id="SVGID_3_" gradientUnits="userSpaceOnUse" x1="73.718" x2="434.27" xlink:href="#lg2" y1="428.91" y2="428.91"/><linearGradient id="SVGID_4_" gradientUnits="userSpaceOnUse" x1="82.224" x2="442.776" xlink:href="#lg2" y1="428.91" y2="428.91"/><linearGradient id="SVGID_5_" gradientUnits="userSpaceOnUse" x1="72.667" x2="444.022" xlink:href="#lg2" y1="428.91" y2="428.91"/><linearGradient id="SVGID_7_" gradientUnits="userSpaceOnUse" x1="73.473" x2="485.711" y1="220.042" y2="220.042"><stop offset="0" stop-color="#ffdcbd"/><stop offset=".0028" stop-color="#ffdcbd"/><stop offset="1" stop-color="#ffa9b1"/></linearGradient><linearGradient id="SVGID_8_" gradientUnits="userSpaceOnUse" x1="277.483" x2="465.035" y1="220.042" y2="220.042"><stop offset="0" stop-color="#ffc2b5"/><stop offset="1" stop-color="#ff89a8"/></linearGradient><linearGradient id="lg3"><stop offset="0" stop-color="#766e6e"/><stop offset=".1978" stop-color="#676464"/><stop offset=".4488" stop-color="#5a5a5a"/><stop offset=".482" stop-color="#575858"/><stop offset=".799" stop-color="#404d4d"/><stop offset="1" stop-color="#384949"/></linearGradient><linearGradient id="SVGID_9_" gradientUnits="userSpaceOnUse" x1="138.258" x2="256.914" xlink:href="#lg3" y1="184.388" y2="184.388"/><linearGradient id="SVGID_10_" gradientUnits="userSpaceOnUse" x1="290.82" x2="409.476" xlink:href="#lg3" y1="184.388" y2="184.388"/><linearGradient id="lg4"><stop offset="0" stop-color="#fff9df"/><stop offset=".5213" stop-color="#efe2dd"/><stop offset="1" stop-color="#bfbfbf"/></linearGradient><linearGradient id="SVGID_11_" gradientUnits="userSpaceOnUse" x1="155.849" x2="222.916" xlink:href="#lg4" y1="184.388" y2="184.388"/><linearGradient id="SVGID_12_" gradientUnits="userSpaceOnUse" x1="308.411" x2="375.478" xlink:href="#lg4" y1="184.388" y2="184.388"/><linearGradient id="SVGID_13_" gradientUnits="userSpaceOnUse" x1="135.978" x2="227.345" xlink:href="#lg3" y1="288.889" y2="288.889"/><linearGradient id="SVGID_14_" gradientUnits="userSpaceOnUse" x1="270.989" x2="376.132" xlink:href="#lg3" y1="288.889" y2="288.889"/><g><path d="m255 0c-91.24 0-171.832 59.455-198.759 146.631l-38.427 124.403c-36.662 118.691 52.068 238.966 176.292 238.966h121.787c124.224 0 212.955-120.275 176.293-238.966l-38.427-124.403c-26.927-87.176-107.519-146.631-198.759-146.631z" fill="url(#SVGID_1_)"/><path d="m492.186 271.034-38.427-124.403c-26.927-87.176-107.519-146.631-198.759-146.631-6.734 0-13.409.332-20.01.967 82.833 7.969 153.809 64.922 178.749 145.664l38.427 124.403c36.662 118.691-52.068 238.966-176.292 238.966h40.02c124.224 0 212.955-120.275 176.292-238.966z" fill="url(#SVGID_2_)"/><g><path d="m127.409 400.855c-2.06-8.237-9.464-14.015-17.954-14.015h-12.933c-13.249 0-22.217 13.512-17.069 25.72 8.337 19.769 19.449 37.536 32.762 52.315 3.508 3.894 8.512 6.104 13.752 6.104 13.522 0 22.557-14.054 16.805-26.292-6.217-13.226-11.4-27.988-15.363-43.832z" fill="url(#SVGID_3_)"/><path d="m413.478 386.84h-12.932c-8.491 0-15.894 5.778-17.955 14.015-3.963 15.844-9.146 30.606-15.364 43.833-5.753 12.237 3.283 26.292 16.805 26.292 5.241 0 10.245-2.21 13.752-6.104 13.313-14.779 24.425-32.546 32.762-52.316 5.148-12.208-3.819-25.72-17.068-25.72z" fill="url(#SVGID_4_)"/><g fill="url(#SVGID_5_)"><path d="m226.984 402.552c-.499-8.818-7.807-15.712-16.639-15.712h-6.874c-10.15 0-17.964 9.002-16.502 19.046 2.912 19.998 6.886 38.14 11.708 53.473 2.179 6.929 8.626 11.621 15.889 11.621 9.959 0 17.705-8.67 16.559-18.562-1.699-14.658-3.102-31.519-4.141-49.866z"/><path d="m306.529 386.84h-6.874c-8.832 0-16.14 6.894-16.639 15.712-1.039 18.347-2.441 35.207-4.14 49.865-1.147 9.893 6.6 18.562 16.559 18.562 7.263 0 13.71-4.692 15.889-11.621 4.821-15.333 8.796-33.476 11.708-53.473 1.461-10.043-6.353-19.045-16.503-19.045z"/></g></g><path d="m95.866 168.236-30.766 99.601c-.083.27-.166.539-.248.809-11.793 38.936 17.586 78.169 58.269 78.169h263.756c40.683 0 70.062-39.233 58.269-78.169-.082-.27-.164-.539-.247-.809l-30.766-99.601c-.092-.296-.184-.592-.277-.888-13.919-44.194-55.137-74.08-101.471-74.08h-114.77c-46.334 0-87.552 29.886-101.471 74.08-.094.296-.186.592-.278.888z" fill="url(#SVGID_7_)"/><path d="m445.147 268.646c-.082-.27-.164-.539-.247-.809l-30.766-99.601c-.092-.297-.184-.592-.277-.888-13.919-44.194-55.137-74.08-101.471-74.08h-40.02c46.334 0 87.552 29.886 101.471 74.08.093.296.186.592.277.888l30.766 99.601c.083.27.166.539.247.809 11.793 38.937-17.586 78.169-58.269 78.169h40.02c40.683.001 70.062-39.232 58.269-78.169z" fill="url(#SVGID_8_)"/><g><circle cx="178.719" cy="184.388" fill="url(#SVGID_9_)" r="43.722"/><circle cx="331.281" cy="184.388" fill="url(#SVGID_10_)" r="43.722"/><circle cx="178.719" cy="184.388" fill="url(#SVGID_11_)" r="24.713"/><circle cx="331.281" cy="184.388" fill="url(#SVGID_12_)" r="24.713"/></g><g><path d="m198.678 254.999c-10.58.115-19.948 6.64-23.976 16.423-3.048 7.403-8.314 12.243-15.227 12.243-5.662 0-9.152-1.642-11.815-4.477-4.16-4.428-11.645-1.776-11.682 4.299 0 .059-.001.118-.001.178 0 55.529 91.366 48.662 91.366 0 .002-15.832-12.833-28.666-28.665-28.666z" fill="url(#SVGID_13_)"/><path d="m311.322 254.999c10.58.115 19.948 6.64 23.976 16.423 3.048 7.403 8.314 12.243 15.227 12.243 5.662 0 9.152-1.642 11.815-4.477 4.16-4.428 11.645-1.776 11.682 4.299 0 .059.001.118.001.178 0 55.529-91.366 48.662-91.366 0-.002-15.832 12.833-28.666 28.665-28.666z" fill="url(#SVGID_14_)"/></g></g></svg>