<?xml version="1.0" standalone="no"?>
<!DOCTYPE svg PUBLIC "-//W3C//DTD SVG 20010904//EN"
 "http://www.w3.org/TR/2001/REC-SVG-20010904/DTD/svg10.dtd">
<svg version="1.0" xmlns="http://www.w3.org/2000/svg"
 width="450.000000pt" height="450.000000pt" viewBox="0 0 450.000000 450.000000"
 preserveAspectRatio="xMidYMid meet">

<g transform="translate(0.000000,450.000000) scale(0.100000,-0.100000)"
fill="#000000" stroke="none">
<path d="M2060 3410 c-441 -119 -684 -579 -530 -1002 157 -429 653 -628 1058
-424 260 131 422 390 422 676 0 224 -68 390 -224 546 -92 91 -185 150 -302
190 -110 38 -312 44 -424 14z m338 -46 c245 -50 451 -237 528 -479 19 -58 28
-111 31 -191 8 -152 0 -161 -64 -82 -65 80 -126 176 -164 256 -25 51 -34 62
-55 62 -13 0 -24 -5 -24 -10 0 -17 69 -150 116 -222 23 -37 72 -100 108 -142
l66 -75 -15 -41 c-35 -101 -91 -186 -175 -271 -126 -128 -250 -189 -422 -208
-195 -22 -379 33 -536 159 -34 28 -62 55 -62 60 0 5 28 24 63 41 241 120 470
351 588 592 l33 67 78 0 c77 0 78 0 78 25 0 25 0 25 -94 25 l-95 0 -36 -75
c-116 -242 -321 -454 -559 -576 l-99 -51 -18 23 c-80 104 -130 264 -131 414 0
125 20 215 74 325 58 117 186 247 305 308 148 77 317 100 481 66z"/>
<path d="M2440 2740 l0 -30 65 0 65 0 0 30 0 30 -65 0 -65 0 0 -30z"/>
<path d="M3440 1662 c-65 -35 -89 -125 -50 -189 25 -42 68 -63 126 -63 41 0
51 5 85 39 35 34 39 44 39 87 0 114 -102 177 -200 126z"/>
<path d="M910 1545 c0 -118 1 -125 20 -125 17 0 20 7 20 40 l0 40 70 0 c63 0
70 2 70 20 0 17 -8 19 -67 22 l-68 3 0 40 0 40 90 5 c71 4 90 8 90 20 0 12
-20 16 -112 18 l-113 3 0 -126z"/>
<path d="M1290 1577 c0 -104 11 -130 64 -152 42 -18 81 -8 111 27 23 27 25 38
25 124 0 87 -1 94 -20 94 -18 0 -20 -7 -20 -88 0 -98 -12 -122 -62 -122 -45 0
-58 27 -58 123 0 80 -2 87 -20 87 -19 0 -20 -7 -20 -93z"/>
<path d="M1780 1584 c0 -47 -5 -94 -10 -105 -14 -26 -66 -26 -82 1 -13 21 -48
28 -48 9 0 -24 24 -52 56 -65 29 -12 39 -12 68 0 48 20 56 41 56 150 0 89 -1
96 -20 96 -18 0 -20 -7 -20 -86z"/>
<path d="M2010 1545 c0 -118 1 -125 20 -125 19 0 20 7 20 125 0 118 -1 125
-20 125 -19 0 -20 -7 -20 -125z"/>
<path d="M2730 1545 c0 -118 1 -125 20 -125 19 0 20 7 20 125 0 118 -1 125
-20 125 -19 0 -20 -7 -20 -125z"/>
<path d="M2950 1545 l0 -125 108 0 c120 0 145 8 179 59 28 42 29 86 3 129 -29
48 -72 62 -190 62 l-100 0 0 -125z m247 51 c31 -37 29 -71 -6 -107 -28 -28
-34 -29 -115 -29 l-86 0 0 78 c0 43 3 82 8 86 4 5 45 6 91 4 77 -4 86 -7 108
-32z"/>
<path d="M2230 1537 c0 -110 1 -117 20 -117 18 0 20 7 20 53 0 30 3 57 7 61 4
3 32 -18 63 -49 l56 -55 54 55 c30 30 58 55 62 55 4 0 8 -27 8 -60 0 -53 2
-60 20 -60 19 0 20 7 20 117 l0 118 -82 -83 -83 -82 -82 82 -83 83 0 -118z"/>
<path d="M4121 225 c0 -16 3 -24 6 -16 5 11 7 11 14 0 6 -10 8 -5 8 16 0 17
-3 24 -6 16 -5 -11 -7 -11 -14 0 -6 10 -8 5 -8 -16z"/>
<path d="M4180 220 c0 -16 2 -30 4 -30 2 0 6 14 8 30 3 17 1 30 -4 30 -4 0 -8
-13 -8 -30z"/>
<path d="M4250 240 c0 -5 -7 -7 -15 -4 -11 5 -15 0 -14 -17 0 -13 3 -18 6 -11
4 10 8 10 19 1 11 -9 14 -7 14 15 0 14 -2 26 -5 26 -3 0 -5 -4 -5 -10z"/>
<path d="M4293 243 c-7 -2 -13 -13 -13 -22 0 -10 6 -18 13 -18 6 0 12 11 12
24 0 13 0 23 0 22 0 0 -6 -3 -12 -6z"/>
<path d="M4065 160 c-3 -6 1 -13 10 -16 13 -6 14 -8 3 -15 -10 -7 -9 -9 5 -9
22 0 22 19 0 27 -15 6 -15 7 3 14 16 6 16 8 2 8 -9 1 -20 -4 -23 -9z"/>
<path d="M4121 141 c0 -14 3 -20 6 -12 5 11 7 11 14 0 6 -10 9 -7 9 12 0 16
-5 26 -15 26 -10 0 -15 -10 -14 -26z"/>
<path d="M4180 163 c0 -6 -2 -18 -5 -26 -4 -8 0 -14 10 -14 8 0 15 5 15 11 0
15 -20 44 -20 29z"/>
<path d="M4220 145 c0 -14 4 -25 9 -25 4 0 6 11 3 25 -2 14 -6 25 -8 25 -2 0
-4 -11 -4 -25z"/>
</g>
</svg>
