<svg id="Capa_1" enable-background="new 0 0 512 512" height="512" viewBox="0 0 512 512" width="512" xmlns="http://www.w3.org/2000/svg"><g><g><g><g><circle cx="256" cy="245" fill="#fe3745" r="245"/></g></g></g><g><g><g><circle cx="256" cy="200" fill="#ea2a3d" r="180"/></g></g></g><g><g><g><path d="m152.599 329.264c0 5.823 3.834 10.75 9.116 12.394-2.227 2.33-3.604 5.482-3.604 8.96 0 7.168 5.811 12.979 12.979 12.979 1.678 0 3.276-.329 4.748-.909-.15.788-.236 1.599-.236 2.431 0 7.168 5.811 12.979 12.979 12.979 3.215 0 6.152-1.176 8.419-3.112-.06.507-.1 1.021-.1 1.544 0 7.168 5.811 12.979 12.979 12.979 4.452 0 8.378-2.244 10.716-5.66 2.338 3.416 6.264 5.66 10.716 5.66s8.378-2.244 10.716-5.66c2.338 3.416 6.264 5.66 10.716 5.66s8.378-2.244 10.716-5.66c2.338 3.416 6.264 5.66 10.716 5.66s8.378-2.244 10.716-5.66c2.338 3.416 6.264 5.66 10.716 5.66s8.378-2.244 10.716-5.66c2.338 3.416 6.264 5.66 10.716 5.66 2.447 0 4.727-.69 6.681-1.867 1.954 1.177 4.234 1.867 6.681 1.867 4.452 0 8.378-2.244 10.716-5.66 2.338 3.416 6.264 5.66 10.716 5.66s8.378-2.244 10.716-5.66c2.338 3.416 6.264 5.66 10.716 5.66s8.378-2.244 10.716-5.66c2.338 3.416 6.264 5.66 10.716 5.66s8.378-2.244 10.716-5.66c2.338 3.416 6.264 5.66 10.716 5.66s8.378-2.244 10.716-5.66c2.338 3.416 6.264 5.66 10.716 5.66 7.168 0 12.979-5.811 12.979-12.979 0-.523-.04-1.037-.1-1.544 2.267 1.936 5.204 3.112 8.419 3.112 7.168 0 12.979-5.811 12.979-12.979 0-.832-.086-1.643-.236-2.431 1.472.58 3.07.909 4.748.909 7.168 0 12.979-5.811 12.979-12.979 0-3.478-1.376-6.63-3.604-8.96 5.282-1.645 9.116-6.572 9.116-12.394 0-4.125-1.93-7.793-4.93-10.17 3-2.377 4.93-6.045 4.93-10.17 0-5.329-3.215-9.903-7.808-11.902 2.032-2.291 3.277-5.297 3.277-8.6 0-7.168-5.811-12.979-12.979-12.979-.384 0-.762.025-1.138.058 1.151-1.938 1.823-4.192 1.823-6.609 0-7.168-5.811-12.979-12.979-12.979-.384 0-.762.025-1.138.058 1.151-1.938 1.823-4.192 1.823-6.609 0-7.168-5.811-12.979-12.979-12.979-.384 0-.762.025-1.138.058 1.151-1.938 1.823-4.192 1.823-6.609 0-7.168-5.811-12.979-12.979-12.979-.384 0-.762.025-1.138.057 1.151-1.938 1.823-4.192 1.823-6.609 0-7.168-5.811-12.979-12.979-12.979-.384 0-.762.025-1.138.058 1.151-1.938 1.823-4.192 1.823-6.609 0-7.168-5.811-12.979-12.979-12.979-.384 0-.762.025-1.138.058 1.151-1.938 1.823-4.192 1.823-6.609 0-7.168-5.811-12.979-12.979-12.979-.384 0-.762.025-1.138.058 1.151-1.938 1.823-4.192 1.823-6.609 0-7.168-5.811-12.979-12.979-12.979-.384 0-.762.025-1.138.058 1.151-1.938 1.823-4.192 1.823-6.609 0-7.168-5.811-12.979-12.979-12.979-.277 0-.547.024-.82.041.521-1.405.82-2.919.82-4.505 0-7.168-5.811-12.979-12.979-12.979-2.334 0-4.518.624-6.41 1.702.153-.797.24-1.618.24-2.461 0-7.168-5.811-12.979-12.979-12.979-4.228 0-7.972 2.03-10.342 5.159-1.019-6.151-6.349-10.847-12.789-10.847s-11.77 4.696-12.789 10.847c-2.37-3.129-6.114-5.159-10.341-5.159-7.168 0-12.979 5.811-12.979 12.979 0 .842.087 1.663.24 2.461-1.892-1.078-4.076-1.702-6.41-1.702-7.168 0-12.979 5.811-12.979 12.979 0 1.587.299 3.1.82 4.505-.272-.017-.543-.041-.82-.041-7.168 0-12.979 5.811-12.979 12.979 0 2.417.673 4.671 1.823 6.609-.376-.033-.754-.058-1.138-.058-7.168 0-12.979 5.811-12.979 12.979 0 2.417.673 4.671 1.823 6.609-.376-.033-.754-.058-1.138-.058-7.168 0-12.979 5.811-12.979 12.979 0 2.417.673 4.672 1.823 6.609-.376-.033-.754-.058-1.138-.058-7.168 0-12.979 5.811-12.979 12.979 0 2.417.673 4.672 1.823 6.609-.376-.033-.754-.058-1.138-.058-7.168 0-12.979 5.811-12.979 12.979 0 2.417.673 4.672 1.823 6.609-.376-.033-.754-.058-1.138-.058-7.168 0-12.979 5.811-12.979 12.979 0 2.417.673 4.672 1.823 6.609-.376-.033-.754-.058-1.138-.058-7.168 0-12.979 5.811-12.979 12.979 0 2.417.673 4.672 1.823 6.609-.376-.033-.754-.057-1.138-.057-7.168 0-12.979 5.811-12.979 12.979 0 2.417.673 4.672 1.823 6.609-.376-.033-.754-.057-1.138-.057-7.168 0-12.979 5.811-12.979 12.979 0 3.303 1.244 6.309 3.277 8.6-4.593 1.999-7.808 6.573-7.808 11.902 0 4.125 1.931 7.793 4.93 10.17-3.001 2.376-4.931 6.044-4.931 10.169z" fill="#d9eafc"/></g></g></g><g><g><g><path d="m370.409 376.043-1.95-1.383v-118.691c1.151-1.938 1.823-4.192 1.823-6.609 0-7.168-5.811-12.979-12.979-12.979-.384 0-.762.025-1.138.058 1.151-1.938 1.823-4.192 1.823-6.609 0-7.168-5.811-12.979-12.979-12.979-.384 0-.762.025-1.138.058 1.151-1.938 1.823-4.192 1.823-6.609 0-7.168-5.811-12.979-12.979-12.979-.384 0-.762.025-1.138.058 1.15-1.938 1.823-4.193 1.823-6.609 0-7.168-5.811-12.979-12.979-12.979-.384 0-.762.025-1.138.058 1.151-1.938 1.823-4.193 1.823-6.609 0-7.168-5.811-12.979-12.979-12.979-.384 0-.762.025-1.138.057 1.151-1.938 1.823-4.192 1.823-6.609 0-7.168-5.811-12.979-12.979-12.979-.384 0-.762.025-1.138.057 1.151-1.938 1.823-4.192 1.823-6.609 0-7.168-5.811-12.979-12.979-12.979-.277 0-.547.025-.82.042.521-1.405.82-2.919.82-4.505 0-5.223-3.092-9.714-7.54-11.773-4.448 2.059-7.54 6.549-7.54 11.773 0 1.587.299 3.1.82 4.505-.272-.017-.543-.042-.82-.042-7.168 0-12.979 5.811-12.979 12.979 0 2.417.673 4.671 1.823 6.609-.376-.033-.754-.057-1.138-.057-7.168 0-12.979 5.811-12.979 12.979 0 2.417.673 4.671 1.823 6.609-.376-.033-.754-.057-1.138-.057-7.168 0-12.979 5.811-12.979 12.979 0 2.417.673 4.672 1.823 6.609-.376-.033-.754-.058-1.138-.058-7.168 0-12.979 5.811-12.979 12.979 0 2.417.673 4.672 1.823 6.609-.376-.033-.754-.058-1.138-.058-7.168 0-12.979 5.811-12.979 12.979 0 2.417.673 4.672 1.823 6.609-.376-.033-.754-.058-1.138-.058-7.168 0-12.979 5.811-12.979 12.979 0 2.417.673 4.672 1.823 6.609-.376-.033-.754-.058-1.138-.058-7.168 0-12.979 5.811-12.979 12.979 0 2.417.672 4.672 1.823 6.609-.375-.033-.754-.057-1.138-.057-7.168 0-12.979 5.811-12.979 12.979 0 2.417.673 4.672 1.823 6.609-.376-.033-.754-.057-1.138-.057-7.168 0-12.979 5.811-12.979 12.979 0 3.303 1.244 6.309 3.277 8.6-4.593 1.999-7.808 6.573-7.808 11.902 0 4.125 1.931 7.793 4.93 10.17-3 2.377-4.93 6.045-4.93 10.17 0 5.823 3.834 10.75 9.116 12.394-2.228 2.33-3.604 5.482-3.604 8.96 0 7.168 5.811 12.979 12.979 12.979 1.678 0 3.276-.329 4.748-.909-.15.788-.235 1.599-.235 2.431 0 7.168 5.811 12.979 12.979 12.979 3.215 0 6.152-1.176 8.419-3.112-.06.507-.1 1.021-.1 1.544 0 5.45 3.363 10.107 8.123 12.031 2.387-.966 4.425-2.614 5.86-4.712 1.229 1.796 2.904 3.254 4.856 4.246 1.952-.992 3.627-2.45 4.856-4.246 1.433 2.094 3.466 3.74 5.848 4.706.638-.259 1.254-.561 1.837-.913 1.453.875 3.087 1.48 4.835 1.733 3.696-.516 6.895-2.581 8.911-5.526.528.772 1.147 1.474 1.825 2.113.678-.64 1.297-1.342 1.825-2.113 2.012 2.94 5.203 5.002 8.89 5.522 3.687-.521 6.879-2.582 8.891-5.522.528.772 1.147 1.474 1.825 2.113.678-.64 1.297-1.342 1.825-2.113 2.012 2.94 5.203 5.002 8.89 5.522 3.687-.521 6.878-2.582 8.89-5.522.528.772 1.147 1.474 1.825 2.113.678-.64 1.297-1.342 1.825-2.113 2.012 2.94 5.203 5.002 8.891 5.522 3.687-.521 6.878-2.582 8.89-5.522.528.772 1.147 1.474 1.825 2.113.678-.64 1.297-1.342 1.825-2.113 2.016 2.945 5.215 5.01 8.911 5.526 1.749-.253 3.383-.857 4.835-1.733.584.352 1.2.654 1.837.913 2.381-.966 4.415-2.612 5.848-4.706 1.229 1.796 2.904 3.254 4.856 4.246 1.952-.992 3.627-2.45 4.856-4.246 1.436 2.097 3.473 3.746 5.86 4.712 4.76-1.924 8.123-6.581 8.123-12.031 0-.523-.04-1.037-.1-1.544 2.267 1.936 5.204 3.112 8.419 3.112 2.583 0 4.978-.76 6.997-2.055z" fill="#c3ddf4"/></g></g></g><g><g><g><path d="m275.021 255.844h97.397c12.304 0 22.278 9.974 22.278 22.278v111.388h-141.953v-111.389c0-12.303 9.974-22.277 22.278-22.277z" fill="#293d7c"/></g></g></g><g><g><g><g><path d="m354.471 319.093c3-2.377 4.93-6.045 4.93-10.17 0-5.329-3.215-9.903-7.808-11.902 2.032-2.291 3.277-5.297 3.277-8.6 0-7.168-5.811-12.979-12.979-12.979-.384 0-.762.025-1.138.057 1.151-1.938 1.823-4.192 1.823-6.609 0-7.168-5.811-12.979-12.979-12.979-.384 0-.762.025-1.138.057 1.151-1.938 1.823-4.192 1.823-6.609 0-7.168-5.811-12.979-12.979-12.979-.384 0-.762.025-1.138.058 1.151-1.938 1.823-4.192 1.823-6.609 0-7.168-5.811-12.979-12.979-12.979-.384 0-.763.025-1.138.058 1.151-1.938 1.823-4.192 1.823-6.609 0-7.168-5.811-12.979-12.979-12.979-.384 0-.762.025-1.138.058 1.15-1.938 1.823-4.192 1.823-6.609 0-7.168-5.811-12.979-12.979-12.979-.384 0-.762.025-1.138.058 1.151-1.938 1.823-4.192 1.823-6.609 0-7.168-5.811-12.979-12.979-12.979-.384 0-.762.025-1.138.058 1.151-1.938 1.823-4.192 1.823-6.609 0-7.168-5.811-12.979-12.979-12.979-.384 0-.762.025-1.138.058 1.151-1.938 1.823-4.192 1.823-6.609 0-7.168-5.811-12.979-12.979-12.979-.277 0-.547.024-.82.041.521-1.405.82-2.919.82-4.505 0-7.168-5.811-12.979-12.979-12.979-2.334 0-4.518.624-6.41 1.702.153-.797.24-1.618.24-2.461 0-7.168-5.811-12.979-12.979-12.979-4.228 0-7.972 2.03-10.341 5.159-1.019-6.152-6.349-10.847-12.789-10.847s-11.77 4.696-12.789 10.847c-2.37-3.129-6.114-5.159-10.342-5.159-7.168 0-12.979 5.811-12.979 12.979 0 .842.087 1.663.24 2.461-1.892-1.078-4.077-1.702-6.41-1.702-7.168 0-12.979 5.811-12.979 12.979 0 1.587.299 3.1.82 4.505-.272-.017-.543-.041-.82-.041-7.168 0-12.979 5.811-12.979 12.979 0 2.417.673 4.672 1.823 6.609-.376-.033-.754-.058-1.138-.058-7.168 0-12.979 5.811-12.979 12.979 0 2.417.673 4.672 1.823 6.609-.376-.033-.754-.058-1.138-.058-7.168 0-12.979 5.811-12.979 12.979 0 2.417.673 4.672 1.823 6.609-.376-.033-.754-.058-1.138-.058-7.168 0-12.979 5.811-12.979 12.979 0 2.417.673 4.672 1.823 6.609-.376-.033-.754-.058-1.138-.058-7.168 0-12.979 5.811-12.979 12.979 0 2.417.673 4.672 1.823 6.609-.376-.033-.754-.057-1.138-.057-7.168 0-12.979 5.811-12.979 12.979 0 2.417.673 4.672 1.823 6.609-.376-.033-.754-.058-1.138-.058-7.168 0-12.979 5.811-12.979 12.979 0 2.417.673 4.672 1.823 6.609-.376-.033-.754-.058-1.138-.058-7.168 0-12.979 5.811-12.979 12.979 0 2.417.673 4.672 1.823 6.609-.376-.033-.754-.058-1.138-.058-7.168 0-12.979 5.811-12.979 12.979 0 3.303 1.244 6.309 3.277 8.6-4.593 1.999-7.808 6.573-7.808 11.902 0 4.125 1.93 7.793 4.93 10.17-3 2.377-4.93 6.045-4.93 10.17 0 5.823 3.834 10.75 9.116 12.394-2.228 2.33-3.604 5.482-3.604 8.96 0 7.168 5.811 12.979 12.979 12.979 1.678 0 3.276-.329 4.748-.909-.15.788-.236 1.599-.236 2.431 0 7.168 5.811 12.979 12.979 12.979 3.215 0 6.152-1.175 8.419-3.112-.06.507-.1 1.021-.1 1.544 0 7.168 5.811 12.979 12.979 12.979 4.452 0 8.378-2.244 10.716-5.66 2.338 3.416 6.264 5.66 10.716 5.66s8.378-2.244 10.716-5.66c2.338 3.416 6.264 5.66 10.716 5.66s8.378-2.244 10.716-5.66c2.338 3.416 6.264 5.66 10.716 5.66s8.378-2.244 10.716-5.66c2.338 3.416 6.264 5.66 10.716 5.66s8.378-2.244 10.716-5.66c2.338 3.416 6.264 5.66 10.716 5.66 2.447 0 4.727-.69 6.681-1.867 1.954 1.177 4.234 1.867 6.681 1.867 4.452 0 8.378-2.244 10.716-5.66 2.338 3.416 6.264 5.66 10.716 5.66s8.378-2.244 10.716-5.66c2.338 3.416 6.263 5.66 10.716 5.66 4.452 0 8.378-2.244 10.716-5.66 2.338 3.416 6.264 5.66 10.716 5.66s8.378-2.244 10.716-5.66c2.338 3.416 6.264 5.66 10.716 5.66s8.378-2.244 10.716-5.66c2.338 3.416 6.264 5.66 10.716 5.66 7.168 0 12.979-5.811 12.979-12.979 0-.523-.04-1.037-.1-1.544 2.267 1.936 5.204 3.112 8.419 3.112 7.168 0 12.979-5.811 12.979-12.979 0-.832-.086-1.643-.236-2.431 1.472.58 3.07.909 4.748.909 7.168 0 12.979-5.811 12.979-12.979 0-3.478-1.376-6.63-3.604-8.96 5.281-1.645 9.116-6.572 9.116-12.394-.001-4.123-1.931-7.791-4.931-10.169z" fill="#fff"/></g></g></g></g><g><g><g><circle cx="216.163" cy="249.621" fill="#d9eafc" r="15"/></g></g></g><g><g><g><g><path d="m101.463 376.53c0-.523.04-1.037.1-1.544-2.267 1.936-5.204 3.112-8.419 3.112-7.168 0-12.979-5.811-12.979-12.979 0-.832.086-1.642.236-2.431-1.472.58-3.07.909-4.748.909-7.168 0-12.979-5.811-12.979-12.979 0-3.479 1.376-6.63 3.604-8.96-5.282-1.645-9.116-6.572-9.116-12.394 0-4.125 1.93-7.793 4.93-10.17-3-2.377-4.93-6.045-4.93-10.17 0-5.329 3.214-9.903 7.808-11.902-2.032-2.291-3.277-5.297-3.277-8.6 0-7.168 5.811-12.979 12.979-12.979.384 0 .762.025 1.138.057-1.151-1.938-1.823-4.193-1.823-6.609 0-7.168 5.811-12.979 12.979-12.979.384 0 .762.025 1.138.057-1.151-1.938-1.823-4.192-1.823-6.609 0-7.168 5.811-12.979 12.979-12.979.384 0 .762.025 1.138.058-1.151-1.938-1.823-4.192-1.823-6.609 0-7.168 5.811-12.979 12.979-12.979.384 0 .762.025 1.138.057-1.151-1.938-1.823-4.192-1.823-6.609 0-7.168 5.811-12.979 12.979-12.979.384 0 .762.025 1.138.058-1.151-1.938-1.823-4.193-1.823-6.609 0-7.168 5.811-12.979 12.979-12.979.384 0 .762.025 1.138.058-1.151-1.938-1.823-4.193-1.823-6.609 0-7.168 5.811-12.979 12.979-12.979.384 0 .762.025 1.138.058-1.151-1.938-1.823-4.192-1.823-6.609 0-7.168 5.811-12.979 12.979-12.979.384 0 .762.025 1.138.058-1.151-1.938-1.823-4.193-1.823-6.609 0-7.168 5.811-12.979 12.979-12.979.277 0 .547.025.82.042-.521-1.405-.82-2.919-.82-4.505 0-7.168 5.811-12.979 12.979-12.979 2.334 0 4.518.624 6.41 1.702-.153-.797-.24-1.619-.24-2.461 0-5.226 3.096-9.719 7.548-11.776-2.179-4.095-6.474-6.891-11.438-6.891-6.44 0-11.77 4.696-12.789 10.847-2.37-3.129-6.114-5.159-10.342-5.159-7.168 0-12.979 5.811-12.979 12.979 0 .842.087 1.663.24 2.461-1.892-1.078-4.077-1.702-6.41-1.702-7.168 0-12.979 5.811-12.979 12.979 0 1.587.299 3.1.82 4.505-.273-.017-.543-.042-.82-.042-7.168 0-12.979 5.811-12.979 12.979 0 2.417.673 4.672 1.823 6.609-.376-.033-.754-.058-1.138-.058-7.168 0-12.979 5.811-12.979 12.979 0 2.417.673 4.672 1.823 6.609-.376-.033-.754-.058-1.138-.058-7.168 0-12.979 5.811-12.979 12.979 0 2.417.673 4.672 1.823 6.609-.376-.033-.754-.058-1.138-.058-7.168 0-12.979 5.811-12.979 12.979 0 2.417.673 4.672 1.823 6.609-.375-.033-.754-.058-1.138-.058-7.168 0-12.979 5.811-12.979 12.979 0 2.417.673 4.672 1.823 6.609-.376-.033-.754-.057-1.138-.057-7.168 0-12.979 5.811-12.979 12.979 0 2.417.673 4.672 1.823 6.609-.376-.033-.754-.058-1.138-.058-7.168 0-12.979 5.811-12.979 12.979 0 2.417.673 4.672 1.823 6.609-.376-.033-.754-.057-1.138-.057-7.168 0-12.979 5.811-12.979 12.979 0 2.417.673 4.672 1.823 6.609-.375-.033-.754-.057-1.138-.057-7.168 0-12.979 5.811-12.979 12.979 0 3.303 1.245 6.309 3.277 8.6-4.593 1.999-7.808 6.573-7.808 11.902 0 4.125 1.93 7.793 4.93 10.17-3 2.377-4.93 6.045-4.93 10.17 0 5.823 3.834 10.75 9.116 12.394-2.228 2.331-3.604 5.482-3.604 8.96 0 7.168 5.811 12.979 12.979 12.979 1.678 0 3.276-.329 4.748-.909-.15.788-.236 1.599-.236 2.431 0 7.168 5.811 12.979 12.979 12.979 3.215 0 6.152-1.176 8.419-3.112-.06.507-.1 1.021-.1 1.544 0 7.168 5.811 12.979 12.979 12.979 4.452 0 8.378-2.244 10.716-5.66 2.338 3.416 6.264 5.66 10.716 5.66 3.642 0 6.915-1.517 9.271-3.933-2.275-2.338-3.682-5.526-3.682-9.046z" fill="#d9eafc"/></g></g></g></g><g><g><g><path d="m236.979 255.844h-97.397c-12.304 0-22.278 9.974-22.278 22.278v111.388h141.952v-111.389c.001-12.303-9.973-22.277-22.277-22.277z" fill="#445ea0"/></g></g></g><g><g><g><path d="m179.583 255.844h-40c-12.304 0-22.278 9.974-22.278 22.278v111.388h40v-111.389c0-12.303 9.974-22.277 22.278-22.277z" fill="#2e4c89"/></g></g></g><g><g><g><path d="m167.161 512h-70c-8.284 0-15-6.716-15-15v-65h100v65c0 8.284-6.716 15-15 15z" fill="#a86639"/></g></g></g><g><g><g><path d="m132.161 497v-65h-50v65c0 8.284 6.716 15 15 15h50c-8.285 0-15-6.716-15-15z" fill="#a55d2b"/></g></g></g><g><g><g><path d="m344.839 512h70c8.284 0 15-6.716 15-15v-65h-100v65c0 8.284 6.716 15 15 15z" fill="#a86639"/></g></g></g><g><g><g><path d="m379.839 497v-65h-50v65c0 8.284 6.716 15 15 15h50c-8.284 0-15-6.716-15-15z" fill="#a55d2b"/></g></g></g><g><g><g><path d="m461 462h-410c-8.284 0-15-6.716-15-15v-30c0-8.284 6.716-15 15-15h410c8.284 0 15 6.716 15 15v30c0 8.284-6.716 15-15 15z" fill="#bf7e52"/></g></g></g><g><g><g><path d="m116 447v-30c0-8.284 6.716-15 15-15h-80c-8.284 0-15 6.716-15 15v30c0 8.284 6.716 15 15 15h80c-8.284 0-15-6.716-15-15z" fill="#a86639"/></g></g></g><g><g><g><path d="m486 422h-460c-8.284 0-15-6.716-15-15v-30c0-8.284 6.716-15 15-15h460c8.284 0 15 6.716 15 15v30c0 8.284-6.716 15-15 15z" fill="#ce936b"/></g></g></g><g><g><g><path d="m466 392c0-4.142-3.358-7.5-7.5-7.5h-360c-4.142 0-7.5-3.358-7.5-7.5 0-8.284 6.716-15 15-15h-80c-8.284 0-15 6.716-15 15v30c0 8.284 6.716 15 15 15h80c-8.284 0-15-6.716-15-15 0-4.142 3.358-7.5 7.5-7.5h360c4.142 0 7.5-3.358 7.5-7.5z" fill="#bf7e52"/></g></g></g><g><g><g><circle cx="192.3" cy="171.145" fill="#d9eafc" r="15"/></g></g></g><g><g><g><circle cx="427.215" cy="325.55" fill="#c3ddf4" r="15"/></g></g></g><g><g><g><circle cx="217.3" cy="140.163" fill="#d9eafc" r="10"/></g></g></g><g><g><g><circle cx="270.917" cy="233.353" fill="#d9eafc" r="10"/></g></g></g><g><g><g><circle cx="349.401" cy="140.163" fill="#c3ddf4" r="10"/></g></g></g><g><g><g><circle cx="424.745" cy="271.17" fill="#c3ddf4" r="10"/></g></g></g><g><g><g><circle cx="297.47" cy="286.216" fill="#d9eafc" r="7.5"/></g></g></g><g><g><g><circle cx="139.661" cy="225.853" fill="#d9eafc" r="7.5"/></g></g></g><g><g><g><circle cx="376.745" cy="163.645" fill="#c3ddf4" r="7.5"/></g></g></g><g><g><g><circle cx="453.851" cy="301.216" fill="#c3ddf4" r="7.5"/></g></g></g></g></svg>