<svg id="Layer_1" enable-background="new 0 0 513.031 513.031" height="512" viewBox="0 0 513.031 513.031" width="512" xmlns="http://www.w3.org/2000/svg"><path d="m411.814 100.784c-6.094-5.64-15.49-5.68-21.632-.092-36.759 33.438-54.886 19.359-57.54 16.901-5.178-6.184-13.624-6.894-20.413-2.481-55.405 36.01-91.361 17.385-169.745 29.606-82.086 12.794-119.842 123.406-124.425 137.812-17.636 36.508-17.672 175.845-17.109 214.233.128 8.744 7.253 15.766 15.998 15.766h128c9.697 0 17.181-8.575 15.849-18.194-.388-2.807-4.73-28.268-37.092-57.65-30.324-27.537-42.438-222.282 97.722-211.106.374.03.748.047 1.122.05 57.652.545 124.59-17.282 159.596-62.813l31.44-40.469c5.092-6.559 4.324-15.924-1.771-21.563z" fill="#c79a83"/><path d="m501.38 187.643c25.556-42.528 7.194-97.144-36.762-116.531-5.356-39.801-39.487-70.583-80.658-70.583-1.526 0-3.046.196-4.522.582-50.325 13.189-123.93 22.768-167.242 15.565-70.025-11.638-157.193-15.949-160.87-16.127-20.179-.956-42.117 13.16-48.608 36.105-9.009 31.756 14.81 63.286 47.746 63.286 72.263 0 136.741 25.237 172.478 67.512 3.604 4.261 8.983 6.587 14.555 6.307 32.635-1.687 57.321-8.374 82.284-22.636 6.264 3.287 13.183 5.383 20.731 6.184-38.467 32.465-94.287 35.461-117.423 35.176-9.688-.12-17.64 7.478-18.077 17.079-.439 9.645 6.842 17.9 16.452 18.654 41.89 3.287 79.732 22.684 90.33 28.55 12.713 7.037 25.757 11.947 39.543 14.857 9.332 53.57 72.557 86.316 123.236 54.57 38.065-23.839 49.345-73.079 27.099-110.672-5.211-8.813-5.32-19.498-.292-27.878z" fill="#fea0a8"/><path d="m484.609 309.067c-1.33-13.298-11.07-25.385-26.722-33.159-20.425-10.146-21.341-3.42-33.917-41.597-10.048-30.505-16.516-46.016-36.519-65.075-8.583-8.176-7.99-8.01-10.071-13.189-4.79-11.919-20.248-15.163-29.404-6.041-31.68 31.555-80.336 41.612-125.342 41.612-9.605 0-17.539 7.558-17.977 17.181-.442 9.702 6.893 18.006 16.575 18.765 42.204 3.307 80.331 22.818 91.008 28.719 12.809 7.079 25.95 12.018 39.84 14.945 9.529 54.611 73.658 86.486 124.164 54.891 5.804-3.631 9.046-10.239 8.365-17.052z" fill="#ea8692"/><path d="m300.93 144.317c-5.023-24.299-.764-48.004-40.924-70-58.549-32.06-126.283-35.064-190.767-33.521-24.221.597-16.704.046-39.879-14.432-10.095-6.306-23.399-1.14-26.642 10.291-9.014 31.772 14.83 63.285 47.746 63.285 72.263 0 136.741 25.238 172.478 67.512 3.498 4.137 8.814 6.597 14.555 6.307 13.754-.712 32.043-2.356 51.553-8.826 8.611-2.854 13.719-11.719 11.88-20.616z" fill="#ea8692"/><path d="m501.672 215.522c-5.208-8.813-5.319-19.5-.292-27.879 25.552-42.522 7.199-97.141-36.762-116.531-5.349-39.799-39.481-70.583-80.658-70.583-1.526 0-3.046.196-4.522.582-33.872 8.876-89.786 18.35-132.453 18.166-16.82-.035-24.304 21.027-11.474 31.673 22.888 18.994 42.351 21.066 71.484 20.839 31.727-.211 34.903 3.087 46.569 14.052 15.219 14.304 23.031 19.303 52.349 25.017 11.802 2.301 21.994 4.287 26.999 10.199 6.091 7.185 4.636 20.87 2.342 31.085-3.646 16.23-10.21 34.432-7.096 54.597 4.89 31.803 34.517 56.909 66.511 55.504 10.948-.489 18.89-10.661 16.716-21.424-1.805-8.946-5.072-17.455-9.713-25.297z" fill="#ffb9c3"/><path d="m410.764 99.894c-6.24-4.848-14.925-4.337-20.572.809l-.01-.01c-40.296 36.655-58.19 16.102-57.532 16.908-4.754-5.829-13.132-7.168-19.459-3.099-5.798 3.729-10.733 6.713-16.977 9.835-5.895-14.926-2.991-25.038 4.23-32.678 6.005-6.355 5.903-16.586-.393-22.651-6.396-6.161-16.572-5.935-22.689.487-20.19 21.199-18.394 46.759-11.362 65.597-41.285 9.1-108.953-1.462-150.903 18.015-7.811-12.76-17.877-35.989-18.139-71.188-.067-9.063-7.656-16.309-16.801-15.861-8.657.424-15.278 7.941-15.194 16.608.41 42.2 12.712 70.884 23.18 87.725-44.726 37.204-66.557 101.078-70.057 112.055-18.116 36.134-17.213 174.28-18.086 228.787 36.834-74.046 35.91-68.95 46.863-106.783 1.414-4.885 2.75-9.499 3.595-11.768 12.769-34.221 27.242-73.007 58.813-92.686l4.605-2.87 1.909-5.081c18.127-48.25 53.673-70.622 105.64-66.469l1.122.05c52.982.501 111.348-13.855 149.179-51.303 8.507-8.416 8.775-9.395 41.857-51.98 5.422-6.977 4.159-17.029-2.819-22.449z" fill="#a07765"/><g fill="#ea8692"><circle cx="432.948" cy="256.528" r="16"/><circle cx="224.948" cy="304.528" r="16"/><circle cx="336.948" cy="368.528" r="16"/><circle cx="448.948" cy="400.528" r="16"/><circle cx="256.948" cy="384.528" r="16"/><circle cx="448.948" cy="144.528" r="16"/><circle cx="352.948" cy="80.528" r="16"/></g></svg>